<?xml version="1.0" encoding="utf-8"?>
<!-- Generator: Adobe Illustrator 15.1.0, SVG Export Plug-In . SVG Version: 6.00 Build 0)  -->
<!DOCTYPE svg PUBLIC "-//W3C//DTD SVG 1.1//EN" "http://www.w3.org/Graphics/SVG/1.1/DTD/svg11.dtd">
<svg version="1.1" id="Layer_1" xmlns="http://www.w3.org/2000/svg" xmlns:xlink="http://www.w3.org/1999/xlink" x="0px" y="0px"
	 width="800px" height="150px" viewBox="0 0 800 150" enable-background="new 0 0 800 150" xml:space="preserve">
<g id="united-nations">
	<g id="Group" transform="translate(4.000000, 2.000000)">
		<path id="UNITED-NATIONS-Copy" fill="#FFFFFF" d="M719.131,72.113v10.336h-49.769V14.203h49.136v10.334h-38.121v18.377h36.805
			v10.333h-36.806v18.865L719.131,72.113L719.131,72.113z M341.896,13.3v68.247h-9.945L293.88,32.166l-0.049,49.381h-11.016V13.3
			h9.943l38.121,49.38V13.3H341.896z M120.254,13.3l26.957,68.247h-11.846l-6.726-17.404H97.733l-6.726,17.404H79.551L106.509,13.3
			H120.254z M113.186,24.269L101.78,53.712h22.812L113.186,24.269z M254.557,13.3v68.247H243.54V13.3H254.557z M511.376,12.033
			c20.962,0,35.731,15.014,35.731,35.389s-14.771,35.391-35.731,35.391s-35.732-15.016-35.732-35.391S490.415,12.033,511.376,12.033
			z M511.376,22.611c-13.942,0-24.177,10.092-24.177,24.812c0,14.722,10.233,24.812,24.177,24.812s24.178-10.09,24.178-24.812
			C535.554,32.701,525.317,22.611,511.376,22.611z"/>
		<rect id="Rectangle-2-Copy" x="-3.722" y="118.557" fill="#EC546B" width="799.583" height="14.443"/>
	</g>
</g>
<polygon fill="#FFFFFF" points="224.695,15.3 198.666,83.547 184.918,83.547 158.889,15.3 170.636,15.3 191.89,72.383 213.29,15.3 
	"/>
<g id="CONVERSE_1_">
	<g id="Group-18" transform="translate(5.000000, 4.000000)">
		<path id="CONVERSE" fill="#FFFFFF" d="M742.604,11.71h28.078c15.696,0,24.181,7.02,24.181,19.742
			c0,11.602-8.871,19.305-22.768,19.791l22.475,28.712h-13.647L759.18,51.243h-5.558v28.712h-11.019V11.71L742.604,11.71z
			 M770.393,22.044h-16.771v19.207h16.771c8.868,0,13.016-3.218,13.016-9.799C783.406,24.969,779.02,22.044,770.393,22.044z"/>
	</g>
</g>
<g id="GLAD_1_">
	<g id="Group-11" transform="translate(6.000000, 4.000000)">
		<path id="GLAD" fill="#FFFFFF" d="M29.064,10.936c10.87,0,20.23,4.096,26.421,11.017l-8.092,7.849
			c-4.289-5.118-10.724-8.286-18.329-8.286c-13.941,0-24.178,10.09-24.178,24.812c0,14.721,10.237,24.812,23.691,24.812
			c12.431,0,19.742-6.434,21.498-17.694H31.99V43.208h30.027c0.049,0.877,0.097,1.753,0.097,2.632
			c0,19.595-12.431,35.826-33.538,35.826c-17.597,0-35.243-12.576-35.243-35.34C-6.667,25.803,8.348,10.936,29.064,10.936z"/>
	</g>
</g>
<g id="LORO-PIANA_1_">
	<g id="Group-8" transform="translate(10.000000, 5.000000)">
		<path id="LORO-PIANA" fill="#FFFFFF" d="M428.368,51.284h-15.453v26.81h-11.017V9.849h26.47c15.743,0,24.176,7.946,24.176,20.718
			C452.545,43.338,444.113,51.284,428.368,51.284z M428.075,20.233h-15.159V40.9h15.159c8.92,0,13.018-3.314,13.018-10.334
			C441.092,23.547,436.995,20.233,428.075,20.233z"/>
	</g>
</g>
<polygon fill="#FFFFFF" points="613.763,16.203 598.566,84.449 584.821,84.449 570.776,16.203 582.524,16.203 591.791,73.284 
	602.358,16.203 "/>
<polygon fill="#FFFFFF" points="614.679,16.203 625.246,73.284 634.512,16.203 646.262,16.203 632.217,84.449 618.472,84.449 
	603.274,16.203 "/>
</svg>
